<svg width="85" height="24" viewBox="0 0 85 24" fill="none" xmlns="http://www.w3.org/2000/svg">
<rect x="1" y="1" width="22.0715" height="21.7246" rx="7" stroke="white" stroke-width="2"/>
<path d="M7.34043 22.7246V8.32461H13.1604C13.3004 8.32461 13.4738 8.33128 13.6804 8.34461C13.8871 8.35128 14.0838 8.37128 14.2704 8.40461C15.0704 8.53128 15.7371 8.80461 16.2704 9.22461C16.8104 9.64461 17.2138 10.1746 17.4804 10.8146C17.7471 11.4546 17.8804 12.1613 17.8804 12.9346C17.8804 13.7146 17.7471 14.4246 17.4804 15.0646C17.2138 15.7046 16.8104 16.2346 16.2704 16.6546C15.7371 17.0746 15.0704 17.3479 14.2704 17.4746C14.0838 17.5013 13.8838 17.5213 13.6704 17.5346C13.4638 17.5479 13.2938 17.5546 13.1604 17.5546H9.43043V22.7246H7.34043ZM9.43043 15.5746H13.0804C13.2138 15.5746 13.3604 15.5679 13.5204 15.5546C13.6871 15.5413 13.8438 15.5179 13.9904 15.4846C14.4171 15.3846 14.7604 15.2013 15.0204 14.9346C15.2804 14.6613 15.4671 14.3479 15.5804 13.9946C15.6938 13.6413 15.7504 13.2879 15.7504 12.9346C15.7504 12.5813 15.6938 12.2313 15.5804 11.8846C15.4671 11.5313 15.2804 11.2213 15.0204 10.9546C14.7604 10.6813 14.4171 10.4946 13.9904 10.3946C13.8438 10.3546 13.6871 10.3279 13.5204 10.3146C13.3604 10.3013 13.2138 10.2946 13.0804 10.2946H9.43043V15.5746Z" fill="white"/>
<path d="M33.999 21.8766C32.9857 21.8766 32.042 21.7056 31.168 21.3636C30.3067 21.0216 29.5593 20.5466 28.926 19.9386C28.2927 19.3179 27.7987 18.5959 27.444 17.7726C27.0893 16.9493 26.912 16.0499 26.912 15.0746C26.912 14.0993 27.0893 13.1999 27.444 12.3766C27.7987 11.5533 28.2927 10.8376 28.926 10.2296C29.5593 9.60894 30.3067 9.12761 31.168 8.78561C32.0293 8.44361 32.973 8.27261 33.999 8.27261C35.0123 8.27261 35.9433 8.44361 36.792 8.78561C37.6533 9.11494 38.4007 9.58994 39.034 10.2106C39.68 10.8186 40.174 11.5343 40.516 12.3576C40.8707 13.1809 41.048 14.0866 41.048 15.0746C41.048 16.0626 40.8707 16.9683 40.516 17.7916C40.174 18.6149 39.68 19.3369 39.034 19.9576C38.4007 20.5656 37.6533 21.0406 36.792 21.3826C35.9433 21.7119 35.0123 21.8766 33.999 21.8766ZM33.999 20.1856C34.7337 20.1856 35.4113 20.0589 36.032 19.8056C36.6653 19.5523 37.21 19.1976 37.666 18.7416C38.1347 18.2729 38.4957 17.7283 38.749 17.1076C39.015 16.4869 39.148 15.8093 39.148 15.0746C39.148 14.3399 39.015 13.6623 38.749 13.0416C38.4957 12.4209 38.1347 11.8826 37.666 11.4266C37.21 10.9579 36.6653 10.5969 36.032 10.3436C35.4113 10.0903 34.7337 9.96361 33.999 9.96361C33.2517 9.96361 32.5613 10.0903 31.928 10.3436C31.3073 10.5969 30.7627 10.9579 30.294 11.4266C29.8253 11.8826 29.458 12.4209 29.192 13.0416C28.9387 13.6623 28.812 14.3399 28.812 15.0746C28.812 15.8093 28.9387 16.4869 29.192 17.1076C29.458 17.7283 29.8253 18.2729 30.294 18.7416C30.7627 19.1976 31.3073 19.5523 31.928 19.8056C32.5613 20.0589 33.2517 20.1856 33.999 20.1856ZM47.828 21.8766C46.8147 21.8766 45.8457 21.7246 44.921 21.4206C43.9964 21.1039 43.268 20.6986 42.736 20.2046L43.439 18.7226C43.9457 19.1659 44.5917 19.5333 45.377 19.8246C46.1624 20.1159 46.9794 20.2616 47.828 20.2616C48.6007 20.2616 49.2277 20.1729 49.709 19.9956C50.1904 19.8183 50.545 19.5776 50.773 19.2736C51.001 18.9569 51.115 18.6023 51.115 18.2096C51.115 17.7536 50.963 17.3863 50.659 17.1076C50.3677 16.8289 49.9814 16.6073 49.5 16.4426C49.0314 16.2653 48.512 16.1133 47.942 15.9866C47.372 15.8599 46.7957 15.7143 46.213 15.5496C45.643 15.3723 45.1174 15.1506 44.636 14.8846C44.1674 14.6186 43.7874 14.2639 43.496 13.8206C43.2047 13.3646 43.059 12.7819 43.059 12.0726C43.059 11.3886 43.2364 10.7616 43.591 10.1916C43.9584 9.60894 44.5157 9.14661 45.263 8.80461C46.023 8.44994 46.9857 8.27261 48.151 8.27261C48.9237 8.27261 49.69 8.37394 50.45 8.57661C51.21 8.77928 51.8687 9.07061 52.426 9.45061L51.799 10.9706C51.229 10.5906 50.6274 10.3183 49.994 10.1536C49.3607 9.97628 48.7464 9.88761 48.151 9.88761C47.4037 9.88761 46.7894 9.98261 46.308 10.1726C45.8267 10.3626 45.472 10.6159 45.244 10.9326C45.0287 11.2493 44.921 11.6039 44.921 11.9966C44.921 12.4653 45.0667 12.8389 45.358 13.1176C45.662 13.3963 46.0484 13.6179 46.517 13.7826C46.9984 13.9473 47.524 14.0993 48.094 14.2386C48.664 14.3653 49.234 14.5109 49.804 14.6756C50.3867 14.8403 50.9124 15.0556 51.381 15.3216C51.8624 15.5876 52.2487 15.9423 52.54 16.3856C52.8314 16.8289 52.977 17.3989 52.977 18.0956C52.977 18.7669 52.7934 19.3939 52.426 19.9766C52.0587 20.5466 51.4887 21.0089 50.716 21.3636C49.956 21.7056 48.9934 21.8766 47.828 21.8766ZM58.2083 21.7246V10.0776H53.6483V8.42461H64.6493V10.0776H60.0893V21.7246H58.2083ZM66.7186 21.7246V8.42461H68.6186V21.7246H66.7186ZM74.2725 18.5136L74.1775 16.1956L81.7205 8.42461H83.8865L78.0535 14.5806L76.9895 15.7586L74.2725 18.5136ZM72.6005 21.7246V8.42461H74.5005V21.7246H72.6005ZM82.0245 21.7246L76.5715 15.3786L77.8445 13.9726L84.2475 21.7246H82.0245Z" fill="white"/>
</svg>
