<svg width="25" height="24" viewBox="0 0 25 24" fill="none" xmlns="http://www.w3.org/2000/svg">
<rect x="1" y="1" width="22.0715" height="21.7246" rx="7" stroke="white" stroke-width="2"/>
<path d="M7.34043 22.7246V8.32461H13.1604C13.3004 8.32461 13.4738 8.33128 13.6804 8.34461C13.8871 8.35128 14.0838 8.37128 14.2704 8.40461C15.0704 8.53128 15.7371 8.80461 16.2704 9.22461C16.8104 9.64461 17.2138 10.1746 17.4804 10.8146C17.7471 11.4546 17.8804 12.1613 17.8804 12.9346C17.8804 13.7146 17.7471 14.4246 17.4804 15.0646C17.2138 15.7046 16.8104 16.2346 16.2704 16.6546C15.7371 17.0746 15.0704 17.3479 14.2704 17.4746C14.0838 17.5013 13.8838 17.5213 13.6704 17.5346C13.4638 17.5479 13.2938 17.5546 13.1604 17.5546H9.43043V22.7246H7.34043ZM9.43043 15.5746H13.0804C13.2138 15.5746 13.3604 15.5679 13.5204 15.5546C13.6871 15.5413 13.8438 15.5179 13.9904 15.4846C14.4171 15.3846 14.7604 15.2013 15.0204 14.9346C15.2804 14.6613 15.4671 14.3479 15.5804 13.9946C15.6938 13.6413 15.7504 13.2879 15.7504 12.9346C15.7504 12.5813 15.6938 12.2313 15.5804 11.8846C15.4671 11.5313 15.2804 11.2213 15.0204 10.9546C14.7604 10.6813 14.4171 10.4946 13.9904 10.3946C13.8438 10.3546 13.6871 10.3279 13.5204 10.3146C13.3604 10.3013 13.2138 10.2946 13.0804 10.2946H9.43043V15.5746Z" fill="white"/>
</svg>
